<?xml version="1.0" standalone="no"?><!DOCTYPE svg PUBLIC "-//W3C//DTD SVG 1.1//EN" "http://www.w3.org/Graphics/SVG/1.1/DTD/svg11.dtd"><svg t="1784422342888" class="icon" viewBox="0 0 1024 1024" version="1.1" xmlns="http://www.w3.org/2000/svg" p-id="6026" xmlns:xlink="http://www.w3.org/1999/xlink" width="256" height="256"><path d="M952.004923 272.147692H854.252308v69.71077c-10.436923-2.756923-21.346462-5.356308-32.610462-7.798154 0-158.916923-0.866462-161.398154-0.157538-163.367385l0.157538-0.393846a16.305231 16.305231 0 0 1 27.884308-7.522462l111.931077 79.832616a16.305231 16.305231 0 0 1-9.452308 29.538461z m-782.257231 0H71.995077a16.305231 16.305231 0 0 1-9.452308-29.538461c111.458462-79.478154 116.460308-84.401231 121.580308-84.598154h1.969231c5.632 0.039385 10.870154 3.032615 13.784615 7.876923l0.748308 1.024c2.717538 4.332308 1.732923 10.988308 1.732923 167.148308-11.264 2.441846-22.173538 5.041231-32.610462 7.798154V272.147692z m244.460308 0h-16.305231a16.305231 16.305231 0 0 1-16.265846-16.30523V190.621538c0-8.979692 7.286154-16.265846 16.265846-16.265846h228.194462c8.979692 0 16.265846 7.286154 16.265846 16.265846v65.220924a16.305231 16.305231 0 0 1-16.265846 16.265846h-16.305231v35.367384l-32.610462-1.614769v-33.752615h-130.363076v33.752615l-32.610462 1.614769V272.147692z m-137.531077 228.155077a977.92 977.92 0 0 0-119.453538 23.788308C123.628308 515.268923 39.384615 485.100308 39.384615 451.347692c0-47.576615 179.278769-114.057846 472.615385-114.057846s472.615385 66.481231 472.615385 114.057846c0 28.514462-61.44 54.272-88.65477 63.881846-17.211077 5.947077-22.843077 8.585846-28.475077 8.625231-11.027692 0.078769-22.134154-9.688615-120.123076-23.630769l69.55323-70.065231a16.384 16.384 0 0 0-23.158154-23.118769l-87.315692 87.355077a1658.328615 1658.328615 0 0 0-178.136615-10.436923V386.205538a16.305231 16.305231 0 0 0-32.610462 0v97.792a1658.171077 1658.171077 0 0 0-178.136615 10.909539l-87.315692-87.355077a16.344615 16.344615 0 1 0-23.158154 23.158154l69.592615 69.592615zM39.384615 630.665846v-124.337231c148.322462 121.225846 796.120615 122.052923 945.23077 0v124.337231c0 94.208-548.706462 165.888-849.092923 65.181539C75.264 676.627692 39.384615 652.012308 39.384615 630.665846z m48.876308 16.305231a16.305231 16.305231 0 0 0 16.305231-16.305231V581.710769a16.305231 16.305231 0 1 0-32.571077 0v48.915693c0 8.979692 7.286154 16.305231 16.265846 16.30523z m847.478154 0a16.305231 16.305231 0 0 0 16.265846-16.305231V581.710769a16.305231 16.305231 0 1 0-32.571077 0v48.915693c0 8.979692 7.286154 16.305231 16.305231 16.30523z m-733.380923 32.571077a16.305231 16.305231 0 0 0 16.305231-16.305231V614.4a16.305231 16.305231 0 1 0-32.610462 0v48.836923c0 9.019077 7.286154 16.305231 16.305231 16.305231z m619.283692 0a16.305231 16.305231 0 0 0 16.305231-16.305231V614.4a16.305231 16.305231 0 1 0-32.610462 0v48.836923c0 9.019077 7.325538 16.305231 16.305231 16.305231z m-472.615384 32.610461a16.305231 16.305231 0 0 0 16.30523-16.30523v-48.876308a16.305231 16.305231 0 0 0-32.610461 0v48.876308c0 9.019077 7.325538 16.305231 16.305231 16.30523z m325.947076 0a16.305231 16.305231 0 0 0 16.305231-16.30523v-48.876308a16.305231 16.305231 0 1 0-32.610461 0v48.876308c0 9.019077 7.286154 16.305231 16.30523 16.30523zM512 720.305231a16.305231 16.305231 0 0 0 16.305231-16.305231v-48.915692a16.305231 16.305231 0 0 0-32.610462 0v48.915692c0 8.979692 7.286154 16.305231 16.305231 16.305231zM39.384615 793.6v-107.716923c152.851692 118.784 785.526154 124.022154 945.23077 0v107.716923c0 43.835077-143.241846 98.737231-374.823385 111.458462v-62.582154a16.305231 16.305231 0 0 0-16.305231-16.305231h-162.973538a16.305231 16.305231 0 0 0-16.305231 16.305231v62.621538C182.626462 892.337231 39.384615 837.435077 39.384615 793.6z" p-id="6027" fill="#d81e06"></path></svg>