<svg width="256" height="256" version="1.1" xmlns="http://www.w3.org/2000/svg" desc="Created with imagetracer.js version 1.2.6" ><path fill="rgb(0,0,0)" stroke="rgb(0,0,0)" stroke-width="1" opacity="0" d="M 0 0 L 256 0 L 256 256 L 0 256 L 0 0 Z M 46 39 L 14 62 Q 13 67 16 68 L 42 68 L 42 86 L 49 84 L 51 84 L 51 42 Q 50 38 46 39 Z M 209 39 L 207 40 L 205 42 L 205 84 L 213 86 L 214 86 L 214 68 L 241 68 Q 243 67 242 62 L 215 41 Q 213 38 209 39 Z M 99 43 L 96 44 L 95 47 L 95 66 L 98 68 L 103 68 L 103 77 L 112 77 L 112 68 L 144 68 L 144 69 L 144 77 L 153 77 L 153 68 L 159 68 L 161 66 L 161 46 L 159 43 L 99 43 Z M 106 84 L 105 85 L 82 86 L 81 87 L 74 87 L 73 88 L 56 90 L 28 98 L 15 105 L 9 113 L 11 118 L 18 123 L 37 131 L 44 131 L 53 128 L 69 126 L 69 125 L 51 106 Q 51 101 54 101 L 58 102 L 80 124 L 98 123 L 99 122 L 122 122 L 123 121 L 124 121 L 124 96 Q 125 92 130 93 L 132 97 L 132 121 L 135 122 L 159 122 L 160 123 L 170 123 L 171 124 L 177 124 L 201 101 Q 204 101 205 104 L 204 108 L 187 125 L 187 126 L 205 128 L 214 131 Q 232 129 243 120 L 247 113 L 246 110 Q 239 101 227 97 L 191 88 L 168 86 L 167 85 L 153 85 L 152 84 L 106 84 Z M 9 126 L 9 158 L 12 164 L 29 173 L 58 181 L 63 181 L 76 184 L 84 184 L 85 185 L 116 186 L 117 187 L 156 186 L 157 185 L 168 185 L 169 184 L 192 182 L 219 176 Q 232 173 242 166 Q 246 163 247 158 L 247 126 L 234 134 L 208 142 L 185 146 L 167 147 L 166 148 L 150 148 L 149 149 L 109 149 L 108 148 L 92 148 L 91 147 L 66 145 L 38 139 L 26 135 L 9 126 Z M 9 171 L 9 199 L 10 202 L 17 208 Q 28 214 42 218 L 65 223 L 78 224 L 79 225 L 88 225 L 89 226 L 101 226 L 102 227 L 104 227 L 104 210 L 107 207 L 150 207 L 152 210 L 152 227 L 157 226 L 178 225 L 207 220 L 230 213 L 241 207 L 246 202 L 247 198 L 247 171 L 231 180 L 207 187 L 184 191 L 165 192 L 164 193 L 147 193 L 146 194 L 96 193 L 95 192 L 84 192 L 83 191 L 62 189 L 39 184 L 27 180 L 9 171 Z " /><path fill="rgb(0,0,0)" stroke="rgb(0,0,0)" stroke-width="1" opacity="0" d="M 20.5 142 Q 25.3 141.3 26 144.5 L 26 158.5 L 23.5 161 Q 19.8 161.8 19 159.5 L 18 157.5 L 18 145.5 L 20.5 142 Z " /><path fill="rgb(0,0,0)" stroke="rgb(0,0,0)" stroke-width="1" opacity="0" d="M 232.5 142 Q 236.3 141.3 237 143.5 L 238 145.5 L 238 157.5 L 235.5 161 Q 231.8 161.8 231 159.5 L 230 157.5 L 230 144.5 L 232.5 142 Z " /><path fill="rgb(0,0,0)" stroke="rgb(0,0,0)" stroke-width="1" opacity="0" d="M 49.5 150 Q 53.5 149.5 54 152.5 L 54 167.5 L 52.5 169 Q 47.8 169.8 47 166.5 L 47 152.5 L 49.5 150 Z " /><path fill="rgb(0,0,0)" stroke="rgb(0,0,0)" stroke-width="1" opacity="0" d="M 204.5 150 Q 208.5 149.5 209 152.5 L 209 167.5 L 207.5 169 Q 203 170 202 167.5 L 202 151.5 L 203.5 151 L 204.5 150 Z " /><path fill="rgb(0,0,0)" stroke="rgb(0,0,0)" stroke-width="1" opacity="0" d="M 86.5 158 Q 90.5 157.5 91 160.5 L 91 174.5 L 90 177 L 87.5 178 L 84 175.5 L 84 159.5 L 85.5 159 L 86.5 158 Z " /><path fill="rgb(0,0,0)" stroke="rgb(0,0,0)" stroke-width="1" opacity="0" d="M 167.5 158 L 172 159 L 172 175.5 L 169.5 178 L 166 177 L 165 174.5 L 165 160.5 L 167.5 158 Z " /><path fill="rgb(0,0,0)" stroke="rgb(0,0,0)" stroke-width="1" opacity="0" d="M 126.5 160 Q 130.3 159.3 131 161.5 L 132 163.5 L 132 176.5 L 131 179 L 128.5 180 L 125 177.5 L 124 175.5 L 124 163.5 L 126.5 160 Z " /><path fill="rgb(215,30,6)" stroke="rgb(215,30,6)" stroke-width="1" opacity="0.5058823529411764" d="M 45.5 39 Q 50.3 38.3 51 41.5 L 51 83.5 L 49.5 84 L 50 82.5 L 50 41.5 L 48.5 40 L 43.5 41 L 31.5 50 L 33.5 47 L 45.5 39 Z " /><path fill="rgb(215,30,6)" stroke="rgb(215,30,6)" stroke-width="1" opacity="0.5058823529411764" d="M 208.5 39 Q 213.1 38.4 214.5 41 L 242 61.5 L 241.5 63 L 239.5 60 L 212.5 41 L 208.5 40 L 208.5 39 Z " /><path fill="rgb(215,30,6)" stroke="rgb(215,30,6)" stroke-width="1" opacity="0.5058823529411764" d="M 206.5 40 L 206 41.5 L 206 82.5 L 207 83.5 L 205 84 L 205 41.5 L 206.5 40 Z " /><path fill="rgb(215,30,6)" stroke="rgb(215,30,6)" stroke-width="1" opacity="0.5058823529411764" d="M 98.5 43 L 158.5 43 L 161 45.5 L 161 65.5 L 158.5 68 L 160 65.5 L 160 45.5 L 158.5 45 L 157.5 44 L 98.5 44 L 96.5 45 L 96.5 44 L 98.5 43 Z " /><path fill="rgb(215,30,6)" stroke="rgb(215,30,6)" stroke-width="1" opacity="0.5058823529411764" d="M 95.5 46 L 96 65.5 L 98 67.5 L 95 65.5 L 95.5 46 Z " /><path fill="rgb(215,30,6)" stroke="rgb(215,30,6)" stroke-width="1" opacity="0.5058823529411764" d="M 29.5 50 L 27.5 53 L 24.5 55 L 26.5 52 L 29.5 50 Z " /><path fill="rgb(215,30,6)" stroke="rgb(215,30,6)" stroke-width="1" opacity="0.5058823529411764" d="M 22.5 55 L 20.5 58 L 17.5 60 L 19.5 57 L 22.5 55 Z " /><path fill="rgb(215,30,6)" stroke="rgb(215,30,6)" stroke-width="1" opacity="0.5058823529411764" d="M 15.5 60 L 15 61.5 L 14.5 63 L 14 61.5 L 15.5 60 Z " /><path fill="rgb(215,30,6)" stroke="rgb(215,30,6)" stroke-width="1" opacity="0.5058823529411764" d="M 14.5 65 L 15 67 L 17 67.5 L 15.5 68 L 14.5 65 Z " /><path fill="rgb(215,30,6)" stroke="rgb(215,30,6)" stroke-width="1" opacity="0.5058823529411764" d="M 241.5 65 L 242 66.5 L 239.5 68 L 239.5 67 Q 242 67.7 241.5 65 Z " /><path fill="rgb(215,30,6)" stroke="rgb(215,30,6)" stroke-width="1" opacity="0.5058823529411764" d="M 42.5 68 L 43 84.5 L 44 85.5 L 42 86 L 42.5 68 Z " /><path fill="rgb(215,30,6)" stroke="rgb(215,30,6)" stroke-width="1" opacity="0.5058823529411764" d="M 103.5 68 L 104 76.5 L 103 76.5 L 103.5 68 Z " /><path fill="rgb(215,30,6)" stroke="rgb(215,30,6)" stroke-width="1" opacity="0.5058823529411764" d="M 111.5 68 L 112 77 L 105 76.5 L 111 76 L 111.5 68 Z " /><path fill="rgb(215,30,6)" stroke="rgb(215,30,6)" stroke-width="1" opacity="0.5058823529411764" d="M 144.5 68 L 145 76 L 151 76.5 L 144 77 L 144.5 68 Z " /><path fill="rgb(215,30,6)" stroke="rgb(215,30,6)" stroke-width="1" opacity="0.5058823529411764" d="M 152.5 68 L 153 76.5 L 152 76.5 L 152.5 68 Z " /><path fill="rgb(215,30,6)" stroke="rgb(215,30,6)" stroke-width="1" opacity="0.5058823529411764" d="M 213.5 68 L 214 86 L 212 85.5 L 213 84.5 L 213.5 68 Z " /><path fill="rgb(215,30,6)" stroke="rgb(215,30,6)" stroke-width="1" opacity="0.5058823529411764" d="M 45.5 84 L 48 84.5 L 45.5 85 L 45.5 84 Z " /><path fill="rgb(215,30,6)" stroke="rgb(215,30,6)" stroke-width="1" opacity="0.5058823529411764" d="M 105.5 84 L 152 84.5 L 105.5 85 L 105.5 84 Z " /><path fill="rgb(215,30,6)" stroke="rgb(215,30,6)" stroke-width="1" opacity="0.5058823529411764" d="M 208.5 84 L 211 84.5 L 208.5 85 L 208.5 84 Z " /><path fill="rgb(215,30,6)" stroke="rgb(215,30,6)" stroke-width="1" opacity="0.5058823529411764" d="M 90.5 85 L 100 85.5 L 90.5 86 L 90.5 85 Z " /><path fill="rgb(215,30,6)" stroke="rgb(215,30,6)" stroke-width="1" opacity="0.5058823529411764" d="M 156.5 85 L 167 85.5 L 156.5 86 L 156.5 85 Z " /><path fill="rgb(215,30,6)" stroke="rgb(215,30,6)" stroke-width="1" opacity="0.5058823529411764" d="M 81.5 86 L 87 86.5 L 81.5 87 L 81.5 86 Z " /><path fill="rgb(215,30,6)" stroke="rgb(215,30,6)" stroke-width="1" opacity="0.5058823529411764" d="M 168.5 86 L 176 86.5 L 168.5 87 L 168.5 86 Z " /><path fill="rgb(215,30,6)" stroke="rgb(215,30,6)" stroke-width="1" opacity="0.5058823529411764" d="M 73.5 87 L 78 87.5 L 73.5 88 L 73.5 87 Z " /><path fill="rgb(215,30,6)" stroke="rgb(215,30,6)" stroke-width="1" opacity="0.5058823529411764" d="M 178.5 87 L 184 87.5 L 178.5 88 L 178.5 87 Z " /><path fill="rgb(215,30,6)" stroke="rgb(215,30,6)" stroke-width="1" opacity="0.5058823529411764" d="M 66.5 88 L 70 88.5 L 66.5 89 L 66.5 88 Z " /><path fill="rgb(215,30,6)" stroke="rgb(215,30,6)" stroke-width="1" opacity="0.5058823529411764" d="M 185.5 88 L 196 89.5 L 191.5 90 Q 190.3 87.8 185.5 89 L 185.5 88 Z " /><path fill="rgb(215,30,6)" stroke="rgb(215,30,6)" stroke-width="1" opacity="0.5058823529411764" d="M 60.5 89 L 64 89.5 L 60.5 90 L 60.5 89 Z " /><path fill="rgb(215,30,6)" stroke="rgb(215,30,6)" stroke-width="1" opacity="0.5058823529411764" d="M 55.5 90 L 58 90.5 L 55.5 91 L 55.5 90 Z " /><path fill="rgb(215,30,6)" stroke="rgb(215,30,6)" stroke-width="1" opacity="0.5058823529411764" d="M 197.5 90 L 206 91.5 L 202.5 92 L 197.5 91 L 197.5 90 Z " /><path fill="rgb(215,30,6)" stroke="rgb(215,30,6)" stroke-width="1" opacity="0.5058823529411764" d="M 126.5 92 Q 131.3 91.3 132 94.5 L 131.5 96 L 129.5 93 Q 125.3 92.3 124.5 95 L 126.5 92 Z " /><path fill="rgb(215,30,6)" stroke="rgb(215,30,6)" stroke-width="1" opacity="0.5058823529411764" d="M 207.5 92 L 210 92.5 L 207.5 93 L 207.5 92 Z " /><path fill="rgb(215,30,6)" stroke="rgb(215,30,6)" stroke-width="1" opacity="0.5058823529411764" d="M 211.5 93 Q 233.6 96.4 246 109.5 L 247 112.5 L 245 111.5 L 245 109.5 L 240.5 105 Q 228.5 97 211.5 94 L 211.5 93 Z " /><path fill="rgb(215,30,6)" stroke="rgb(215,30,6)" stroke-width="1" opacity="0.5058823529411764" d="M 27.5 98 L 29 98.5 L 25.5 100 L 25.5 99 L 27.5 98 Z " /><path fill="rgb(215,30,6)" stroke="rgb(215,30,6)" stroke-width="1" opacity="0.5058823529411764" d="M 52.5 101 L 51.5 103 L 52.5 101 Z " /><path fill="rgb(215,30,6)" stroke="rgb(215,30,6)" stroke-width="1" opacity="0.5058823529411764" d="M 198.5 101 L 200 101.5 L 176.5 124 L 170.5 124 L 170.5 123 L 176.5 123 L 198.5 101 Z " /><path fill="rgb(215,30,6)" stroke="rgb(215,30,6)" stroke-width="1" opacity="0.5058823529411764" d="M 203.5 101 L 204.5 103 L 203.5 101 Z " /><path fill="rgb(215,30,6)" stroke="rgb(215,30,6)" stroke-width="1" opacity="0.5058823529411764" d="M 17.5 103 L 16.5 105 L 17.5 103 Z " /><path fill="rgb(215,30,6)" stroke="rgb(215,30,6)" stroke-width="1" opacity="0.5058823529411764" d="M 50.5 104 L 52 107.5 L 69 124.5 L 69 126 L 65 125.5 L 68 124.5 L 51 107.5 L 50.5 104 Z " /><path fill="rgb(215,30,6)" stroke="rgb(215,30,6)" stroke-width="1" opacity="0.5058823529411764" d="M 14.5 105 L 11 109.5 L 10.5 111 L 10 109.5 L 14.5 105 Z " /><path fill="rgb(215,30,6)" stroke="rgb(215,30,6)" stroke-width="1" opacity="0.5058823529411764" d="M 204.5 106 L 205 107.5 L 188.5 125 L 192 125.5 L 187 126 L 187 124.5 L 204.5 106 Z " /><path fill="rgb(215,30,6)" stroke="rgb(215,30,6)" stroke-width="1" opacity="0.5058823529411764" d="M 245.5 114 L 246 115.5 L 244 116.5 L 245.5 114 Z " /><path fill="rgb(215,30,6)" stroke="rgb(215,30,6)" stroke-width="1" opacity="0.5058823529411764" d="M 11.5 117 L 13.5 120 L 11.5 117 Z " /><path fill="rgb(215,30,6)" stroke="rgb(215,30,6)" stroke-width="1" opacity="0.5058823529411764" d="M 243.5 118 L 242.5 120 L 243.5 118 Z " /><path fill="rgb(215,30,6)" stroke="rgb(215,30,6)" stroke-width="1" opacity="0.5058823529411764" d="M 15.5 120 L 27 126.5 L 25.5 127 L 17.5 123 L 15.5 120 Z " /><path fill="rgb(215,30,6)" stroke="rgb(215,30,6)" stroke-width="1" opacity="0.5058823529411764" d="M 240.5 120 L 239.5 122 L 240.5 120 Z " /><path fill="rgb(215,30,6)" stroke="rgb(215,30,6)" stroke-width="1" opacity="0.5058823529411764" d="M 101.5 121 L 122 121.5 L 101.5 122 L 101.5 121 Z " /><path fill="rgb(215,30,6)" stroke="rgb(215,30,6)" stroke-width="1" opacity="0.5058823529411764" d="M 134.5 121 L 156 121.5 L 134.5 122 L 134.5 121 Z " /><path fill="rgb(215,30,6)" stroke="rgb(215,30,6)" stroke-width="1" opacity="0.5058823529411764" d="M 90.5 122 L 98 122.5 L 90.5 123 L 90.5 122 Z " /><path fill="rgb(215,30,6)" stroke="rgb(215,30,6)" stroke-width="1" opacity="0.5058823529411764" d="M 159.5 122 L 167 122.5 L 159.5 123 L 159.5 122 Z " /><path fill="rgb(215,30,6)" stroke="rgb(215,30,6)" stroke-width="1" opacity="0.5058823529411764" d="M 237.5 122 L 236.5 124 L 227.5 128 L 227.5 127 L 237.5 122 Z " /><path fill="rgb(215,30,6)" stroke="rgb(215,30,6)" stroke-width="1" opacity="0.5058823529411764" d="M 79.5 123 L 87 123.5 L 79.5 124 L 79.5 123 Z " /><path fill="rgb(215,30,6)" stroke="rgb(215,30,6)" stroke-width="1" opacity="0.5058823529411764" d="M 9 126 L 25.5 135 Q 40.6 140.9 59 143.5 L 54.5 144 L 25.5 136 L 13.5 130 L 10.5 127 L 9.5 158 L 9 126 Z " /><path fill="rgb(215,30,6)" stroke="rgb(215,30,6)" stroke-width="1" opacity="0.5058823529411764" d="M 59.5 126 L 63 126.5 L 59.5 127 L 59.5 126 Z " /><path fill="rgb(215,30,6)" stroke="rgb(215,30,6)" stroke-width="1" opacity="0.5058823529411764" d="M 194.5 126 L 198 126.5 L 194.5 127 L 194.5 126 Z " /><path fill="rgb(215,30,6)" stroke="rgb(215,30,6)" stroke-width="1" opacity="0.5058823529411764" d="M 246.5 126 L 247 157.5 L 246 157.5 L 246.5 126 Z " /><path fill="rgb(215,30,6)" stroke="rgb(215,30,6)" stroke-width="1" opacity="0.5058823529411764" d="M 28.5 127 L 32 128.5 L 30.5 129 L 28.5 127 Z " /><path fill="rgb(215,30,6)" stroke="rgb(215,30,6)" stroke-width="1" opacity="0.5058823529411764" d="M 53.5 127 L 57 127.5 L 53.5 128 L 53.5 127 Z " /><path fill="rgb(215,30,6)" stroke="rgb(215,30,6)" stroke-width="1" opacity="0.5058823529411764" d="M 199.5 127 L 203 127.5 L 199.5 128 L 199.5 127 Z " /><path fill="rgb(215,30,6)" stroke="rgb(215,30,6)" stroke-width="1" opacity="0.5058823529411764" d="M 244.5 127 L 242.5 130 L 240.5 131 L 241.5 129 L 244.5 127 Z " /><path fill="rgb(215,30,6)" stroke="rgb(215,30,6)" stroke-width="1" opacity="0.5058823529411764" d="M 49.5 128 L 52 128.5 L 49.5 129 L 49.5 128 Z " /><path fill="rgb(215,30,6)" stroke="rgb(215,30,6)" stroke-width="1" opacity="0.5058823529411764" d="M 205.5 128 L 208 128.5 L 205.5 129 L 205.5 128 Z " /><path fill="rgb(215,30,6)" stroke="rgb(215,30,6)" stroke-width="1" opacity="0.5058823529411764" d="M 44.5 129 L 48 129.5 L 40.5 131 L 40.5 130 L 44.5 129 Z " /><path fill="rgb(215,30,6)" stroke="rgb(215,30,6)" stroke-width="1" opacity="0.5058823529411764" d="M 209.5 129 L 212 129.5 L 209.5 130 L 209.5 129 Z " /><path fill="rgb(215,30,6)" stroke="rgb(215,30,6)" stroke-width="1" opacity="0.5058823529411764" d="M 36.5 130 L 39 130.5 L 36.5 131 L 36.5 130 Z " /><path fill="rgb(215,30,6)" stroke="rgb(215,30,6)" stroke-width="1" opacity="0.5058823529411764" d="M 213.5 130 L 216 130.5 L 213.5 131 L 213.5 130 Z " /><path fill="rgb(215,30,6)" stroke="rgb(215,30,6)" stroke-width="1" opacity="0.5058823529411764" d="M 212.5 140 L 215 140.5 L 212.5 141 L 212.5 140 Z " /><path fill="rgb(215,30,6)" stroke="rgb(215,30,6)" stroke-width="1" opacity="0.5058823529411764" d="M 20.5 141 Q 25.3 140.3 26 143.5 L 23.5 142 Q 19.8 141.3 19 143.5 L 18.5 145 L 18 143.5 L 20.5 141 Z " /><path fill="rgb(215,30,6)" stroke="rgb(215,30,6)" stroke-width="1" opacity="0.5058823529411764" d="M 208.5 141 L 211 141.5 L 208.5 142 L 208.5 141 Z " /><path fill="rgb(215,30,6)" stroke="rgb(215,30,6)" stroke-width="1" opacity="0.5058823529411764" d="M 232.5 141 Q 237.3 140.3 238 143.5 L 237.5 145 L 235.5 142 Q 231.3 141.3 230.5 144 L 232.5 141 Z " /><path fill="rgb(215,30,6)" stroke="rgb(215,30,6)" stroke-width="1" opacity="0.5058823529411764" d="M 203.5 142 L 206 142.5 L 203.5 143 L 203.5 142 Z " /><path fill="rgb(215,30,6)" stroke="rgb(215,30,6)" stroke-width="1" opacity="0.5058823529411764" d="M 198.5 143 L 201 143.5 L 198.5 144 L 198.5 143 Z " /><path fill="rgb(215,30,6)" stroke="rgb(215,30,6)" stroke-width="1" opacity="0.5058823529411764" d="M 60.5 144 L 65 144.5 L 60.5 145 L 60.5 144 Z " /><path fill="rgb(215,30,6)" stroke="rgb(215,30,6)" stroke-width="1" opacity="0.5058823529411764" d="M 192.5 144 L 196 144.5 L 192.5 145 L 192.5 144 Z " /><path fill="rgb(215,30,6)" stroke="rgb(215,30,6)" stroke-width="1" opacity="0.5058823529411764" d="M 66.5 145 L 72 145.5 L 66.5 146 L 66.5 145 Z " /><path fill="rgb(215,30,6)" stroke="rgb(215,30,6)" stroke-width="1" opacity="0.5058823529411764" d="M 185.5 145 L 189 145.5 L 185.5 146 L 185.5 145 Z " /><path fill="rgb(215,30,6)" stroke="rgb(215,30,6)" stroke-width="1" opacity="0.5058823529411764" d="M 74.5 146 L 81 146.5 L 74.5 147 L 74.5 146 Z " /><path fill="rgb(215,30,6)" stroke="rgb(215,30,6)" stroke-width="1" opacity="0.5058823529411764" d="M 176.5 146 L 182 146.5 L 176.5 147 L 176.5 146 Z " /><path fill="rgb(215,30,6)" stroke="rgb(215,30,6)" stroke-width="1" opacity="0.5058823529411764" d="M 82.5 147 L 91 147.5 L 82.5 148 L 82.5 147 Z " /><path fill="rgb(215,30,6)" stroke="rgb(215,30,6)" stroke-width="1" opacity="0.5058823529411764" d="M 166.5 147 L 173 147.5 L 166.5 148 L 166.5 147 Z " /><path fill="rgb(215,30,6)" stroke="rgb(215,30,6)" stroke-width="1" opacity="0.5058823529411764" d="M 94.5 148 L 108 148.5 L 94.5 149 L 94.5 148 Z " /><path fill="rgb(215,30,6)" stroke="rgb(215,30,6)" stroke-width="1" opacity="0.5058823529411764" d="M 149.5 148 L 161 148.5 L 149.5 149 L 149.5 148 Z " /><path fill="rgb(215,30,6)" stroke="rgb(215,30,6)" stroke-width="1" opacity="0.5058823529411764" d="M 49.5 149 Q 54.5 148.5 55 152.5 L 54.5 167 L 54 152.5 L 51.5 150 Q 47.5 149.5 47 152.5 L 47 166.5 L 49.5 169 L 53.5 168 L 52.5 170 Q 48 171 47 168.5 L 46 166.5 L 46 152.5 L 49.5 149 Z " /><path fill="rgb(215,30,6)" stroke="rgb(215,30,6)" stroke-width="1" opacity="0.5058823529411764" d="M 115.5 149 L 141 149.5 L 115.5 150 L 115.5 149 Z " /><path fill="rgb(215,30,6)" stroke="rgb(215,30,6)" stroke-width="1" opacity="0.5058823529411764" d="M 204.5 149 Q 209.5 148.5 210 152.5 L 209.5 167 L 209 152.5 L 206.5 150 L 202.5 151 L 202.5 150 L 204.5 149 Z " /><path fill="rgb(215,30,6)" stroke="rgb(215,30,6)" stroke-width="1" opacity="0.5058823529411764" d="M 201.5 152 L 202 167.5 L 203.5 169 L 208.5 168 L 207.5 170 Q 202 171 201 167.5 L 201.5 152 Z " /><path fill="rgb(215,30,6)" stroke="rgb(215,30,6)" stroke-width="1" opacity="0.5058823529411764" d="M 86.5 157 L 88 157.5 L 84.5 159 L 84.5 158 L 86.5 157 Z " /><path fill="rgb(215,30,6)" stroke="rgb(215,30,6)" stroke-width="1" opacity="0.5058823529411764" d="M 18.5 158 L 20.5 161 Q 24.8 161.8 25.5 159 L 23.5 162 Q 18.8 162.8 18 159.5 L 18.5 158 Z " /><path fill="rgb(215,30,6)" stroke="rgb(215,30,6)" stroke-width="1" opacity="0.5058823529411764" d="M 89.5 158 L 90.5 160 L 89.5 158 Z " /><path fill="rgb(215,30,6)" stroke="rgb(215,30,6)" stroke-width="1" opacity="0.5058823529411764" d="M 166.5 158 L 165.5 160 L 166.5 158 Z " /><path fill="rgb(215,30,6)" stroke="rgb(215,30,6)" stroke-width="1" opacity="0.5058823529411764" d="M 230.5 158 L 232.5 161 Q 236.3 161.8 237 159.5 L 237.5 158 L 238 159.5 Q 237.3 162.8 232.5 162 Q 228.9 160.9 230.5 158 Z " /><path fill="rgb(215,30,6)" stroke="rgb(215,30,6)" stroke-width="1" opacity="0.5058823529411764" d="M 10.5 160 L 11.5 162 L 10.5 160 Z " /><path fill="rgb(215,30,6)" stroke="rgb(215,30,6)" stroke-width="1" opacity="0.5058823529411764" d="M 83.5 160 L 84 175.5 L 85.5 177 L 87 177.5 L 85.5 178 L 83 175.5 L 83.5 160 Z " /><path fill="rgb(215,30,6)" stroke="rgb(215,30,6)" stroke-width="1" opacity="0.5058823529411764" d="M 125.5 160 L 125 161.5 L 124.5 163 L 124 161.5 L 125.5 160 Z " /><path fill="rgb(215,30,6)" stroke="rgb(215,30,6)" stroke-width="1" opacity="0.5058823529411764" d="M 130.5 160 L 132 162.5 L 131 162.5 L 130.5 160 Z " /><path fill="rgb(215,30,6)" stroke="rgb(215,30,6)" stroke-width="1" opacity="0.5058823529411764" d="M 172.5 160 L 173 175.5 L 170 177.5 L 172 175.5 L 172.5 160 Z " /><path fill="rgb(215,30,6)" stroke="rgb(215,30,6)" stroke-width="1" opacity="0.5058823529411764" d="M 91.5 161 L 92 174.5 L 89.5 178 L 88 177.5 L 90 177 L 91 174.5 L 91.5 161 Z " /><path fill="rgb(215,30,6)" stroke="rgb(215,30,6)" stroke-width="1" opacity="0.5058823529411764" d="M 164.5 161 L 165 174.5 L 166 177 L 169 177.5 L 166.5 178 L 164 174.5 L 164.5 161 Z " /><path fill="rgb(215,30,6)" stroke="rgb(215,30,6)" stroke-width="1" opacity="0.5058823529411764" d="M 244.5 162 L 241.5 166 L 229.5 172 L 229.5 171 Q 238.8 168.3 244.5 162 Z " /><path fill="rgb(215,30,6)" stroke="rgb(215,30,6)" stroke-width="1" opacity="0.5058823529411764" d="M 14.5 164 L 16.5 167 L 14.5 164 Z " /><path fill="rgb(215,30,6)" stroke="rgb(215,30,6)" stroke-width="1" opacity="0.5058823529411764" d="M 9 171 Q 20.9 179.2 38 183.5 L 35.5 184 Q 20.7 180.3 10.5 172 L 9.5 199 L 9 171 Z " /><path fill="rgb(215,30,6)" stroke="rgb(215,30,6)" stroke-width="1" opacity="0.5058823529411764" d="M 26.5 171 L 33 173.5 L 31.5 174 L 26.5 172 L 26.5 171 Z " /><path fill="rgb(215,30,6)" stroke="rgb(215,30,6)" stroke-width="1" opacity="0.5058823529411764" d="M 245.5 171 L 247 171.5 L 247 197.5 L 246 197.5 L 245.5 172 L 233.5 179 L 233.5 178 L 245.5 171 Z " /><path fill="rgb(215,30,6)" stroke="rgb(215,30,6)" stroke-width="1" opacity="0.5058823529411764" d="M 34.5 174 L 37 174.5 L 34.5 175 L 34.5 174 Z " /><path fill="rgb(215,30,6)" stroke="rgb(215,30,6)" stroke-width="1" opacity="0.5058823529411764" d="M 216.5 175 L 219 175.5 L 216.5 176 L 216.5 175 Z " /><path fill="rgb(215,30,6)" stroke="rgb(215,30,6)" stroke-width="1" opacity="0.5058823529411764" d="M 124.5 176 L 126.5 179 L 128 179.5 L 125 180 L 124.5 176 Z " /><path fill="rgb(215,30,6)" stroke="rgb(215,30,6)" stroke-width="1" opacity="0.5058823529411764" d="M 44.5 177 L 47 177.5 L 44.5 178 L 44.5 177 Z " /><path fill="rgb(215,30,6)" stroke="rgb(215,30,6)" stroke-width="1" opacity="0.5058823529411764" d="M 208.5 177 L 212 177.5 L 208.5 178 L 208.5 177 Z " /><path fill="rgb(215,30,6)" stroke="rgb(215,30,6)" stroke-width="1" opacity="0.5058823529411764" d="M 48.5 178 L 51 178.5 L 48.5 179 L 48.5 178 Z " /><path fill="rgb(215,30,6)" stroke="rgb(215,30,6)" stroke-width="1" opacity="0.5058823529411764" d="M 204.5 178 L 207 178.5 L 204.5 179 L 204.5 178 Z " /><path fill="rgb(215,30,6)" stroke="rgb(215,30,6)" stroke-width="1" opacity="0.5058823529411764" d="M 53.5 179 L 56 179.5 L 53.5 180 L 53.5 179 Z " /><path fill="rgb(215,30,6)" stroke="rgb(215,30,6)" stroke-width="1" opacity="0.5058823529411764" d="M 199.5 179 L 203 179.5 L 199.5 180 L 199.5 179 Z " /><path fill="rgb(215,30,6)" stroke="rgb(215,30,6)" stroke-width="1" opacity="0.5058823529411764" d="M 57.5 180 L 61 180.5 L 57.5 181 L 57.5 180 Z " /><path fill="rgb(215,30,6)" stroke="rgb(215,30,6)" stroke-width="1" opacity="0.5058823529411764" d="M 193.5 180 L 197 180.5 L 193.5 181 L 193.5 180 Z " /><path fill="rgb(215,30,6)" stroke="rgb(215,30,6)" stroke-width="1" opacity="0.5058823529411764" d="M 63.5 181 L 67 181.5 L 63.5 182 L 63.5 181 Z " /><path fill="rgb(215,30,6)" stroke="rgb(215,30,6)" stroke-width="1" opacity="0.5058823529411764" d="M 187.5 181 L 192 181.5 L 187.5 182 L 187.5 181 Z " /><path fill="rgb(215,30,6)" stroke="rgb(215,30,6)" stroke-width="1" opacity="0.5058823529411764" d="M 69.5 182 L 73 182.5 L 69.5 183 L 69.5 182 Z " /><path fill="rgb(215,30,6)" stroke="rgb(215,30,6)" stroke-width="1" opacity="0.5058823529411764" d="M 179.5 182 L 185 182.5 L 179.5 183 L 179.5 182 Z " /><path fill="rgb(215,30,6)" stroke="rgb(215,30,6)" stroke-width="1" opacity="0.5058823529411764" d="M 75.5 183 L 81 183.5 L 75.5 184 L 75.5 183 Z " /><path fill="rgb(215,30,6)" stroke="rgb(215,30,6)" stroke-width="1" opacity="0.5058823529411764" d="M 171.5 183 L 177 183.5 L 171.5 184 L 171.5 183 Z " /><path fill="rgb(215,30,6)" stroke="rgb(215,30,6)" stroke-width="1" opacity="0.5058823529411764" d="M 39.5 184 L 46 185.5 L 42.5 186 L 39.5 185 L 39.5 184 Z " /><path fill="rgb(215,30,6)" stroke="rgb(215,30,6)" stroke-width="1" opacity="0.5058823529411764" d="M 84.5 184 L 92 184.5 L 84.5 185 L 84.5 184 Z " /><path fill="rgb(215,30,6)" stroke="rgb(215,30,6)" stroke-width="1" opacity="0.5058823529411764" d="M 160.5 184 L 168 184.5 L 160.5 185 L 160.5 184 Z " /><path fill="rgb(215,30,6)" stroke="rgb(215,30,6)" stroke-width="1" opacity="0.5058823529411764" d="M 215.5 184 L 218 184.5 L 215.5 185 L 215.5 184 Z " /><path fill="rgb(215,30,6)" stroke="rgb(215,30,6)" stroke-width="1" opacity="0.5058823529411764" d="M 95.5 185 L 107 185.5 L 95.5 186 L 95.5 185 Z " /><path fill="rgb(215,30,6)" stroke="rgb(215,30,6)" stroke-width="1" opacity="0.5058823529411764" d="M 143.5 185 L 156 185.5 L 143.5 186 L 143.5 185 Z " /><path fill="rgb(215,30,6)" stroke="rgb(215,30,6)" stroke-width="1" opacity="0.5058823529411764" d="M 211.5 185 L 214 185.5 L 211.5 186 L 211.5 185 Z " /><path fill="rgb(215,30,6)" stroke="rgb(215,30,6)" stroke-width="1" opacity="0.5058823529411764" d="M 47.5 186 L 61 188.5 L 56.5 189 L 47.5 187 L 47.5 186 Z " /><path fill="rgb(215,30,6)" stroke="rgb(215,30,6)" stroke-width="1" opacity="0.5058823529411764" d="M 116.5 186 L 135 186.5 L 116.5 187 L 116.5 186 Z " /><path fill="rgb(215,30,6)" stroke="rgb(215,30,6)" stroke-width="1" opacity="0.5058823529411764" d="M 207.5 186 L 210 186.5 L 207.5 187 L 207.5 186 Z " /><path fill="rgb(215,30,6)" stroke="rgb(215,30,6)" stroke-width="1" opacity="0.5058823529411764" d="M 202.5 187 L 205 187.5 L 202.5 188 L 202.5 187 Z " /><path fill="rgb(215,30,6)" stroke="rgb(215,30,6)" stroke-width="1" opacity="0.5058823529411764" d="M 197.5 188 L 200 188.5 L 197.5 189 L 197.5 188 Z " /><path fill="rgb(215,30,6)" stroke="rgb(215,30,6)" stroke-width="1" opacity="0.5058823529411764" d="M 62.5 189 L 67 189.5 L 62.5 190 L 62.5 189 Z " /><path fill="rgb(215,30,6)" stroke="rgb(215,30,6)" stroke-width="1" opacity="0.5058823529411764" d="M 191.5 189 L 195 189.5 L 191.5 190 L 191.5 189 Z " /><path fill="rgb(215,30,6)" stroke="rgb(215,30,6)" stroke-width="1" opacity="0.5058823529411764" d="M 68.5 190 L 75 190.5 L 68.5 191 L 68.5 190 Z " /><path fill="rgb(215,30,6)" stroke="rgb(215,30,6)" stroke-width="1" opacity="0.5058823529411764" d="M 184.5 190 L 188 190.5 L 184.5 191 L 184.5 190 Z " /><path fill="rgb(215,30,6)" stroke="rgb(215,30,6)" stroke-width="1" opacity="0.5058823529411764" d="M 76.5 191 L 83 191.5 L 76.5 192 L 76.5 191 Z " /><path fill="rgb(215,30,6)" stroke="rgb(215,30,6)" stroke-width="1" opacity="0.5058823529411764" d="M 175.5 191 L 181 191.5 L 175.5 192 L 175.5 191 Z " /><path fill="rgb(215,30,6)" stroke="rgb(215,30,6)" stroke-width="1" opacity="0.5058823529411764" d="M 85.5 192 L 95 192.5 L 85.5 193 L 85.5 192 Z " /><path fill="rgb(215,30,6)" stroke="rgb(215,30,6)" stroke-width="1" opacity="0.5058823529411764" d="M 164.5 192 L 172 192.5 L 164.5 193 L 164.5 192 Z " /><path fill="rgb(215,30,6)" stroke="rgb(215,30,6)" stroke-width="1" opacity="0.5058823529411764" d="M 97.5 193 L 113 193.5 L 97.5 194 L 97.5 193 Z " /><path fill="rgb(215,30,6)" stroke="rgb(215,30,6)" stroke-width="1" opacity="0.5058823529411764" d="M 146.5 193 L 160 193.5 L 146.5 194 L 146.5 193 Z " /><path fill="rgb(215,30,6)" stroke="rgb(215,30,6)" stroke-width="1" opacity="0.5058823529411764" d="M 123.5 194 L 134 194.5 L 123.5 195 L 123.5 194 Z " /><path fill="rgb(215,30,6)" stroke="rgb(215,30,6)" stroke-width="1" opacity="0.5058823529411764" d="M 10.5 200 L 16.5 207 L 19 208.5 L 17.5 208 L 10 201.5 L 10.5 200 Z " /><path fill="rgb(215,30,6)" stroke="rgb(215,30,6)" stroke-width="1" opacity="0.5058823529411764" d="M 245.5 200 L 246 201.5 L 240 206.5 L 245.5 200 Z " /><path fill="rgb(215,30,6)" stroke="rgb(215,30,6)" stroke-width="1" opacity="0.5058823529411764" d="M 106.5 206 L 149.5 206 L 153 209.5 L 153 225.5 L 155.5 226 L 155.5 227 L 152 226.5 L 152 209.5 L 149.5 207 L 106.5 207 L 104 208.5 L 106.5 206 Z " /><path fill="rgb(215,30,6)" stroke="rgb(215,30,6)" stroke-width="1" opacity="0.5058823529411764" d="M 238.5 207 L 237.5 209 L 235.5 210 L 236.5 208 L 238.5 207 Z " /><path fill="rgb(215,30,6)" stroke="rgb(215,30,6)" stroke-width="1" opacity="0.5058823529411764" d="M 103.5 210 L 104 227 L 101 226.5 L 103 226 L 103.5 210 Z " /><path fill="rgb(215,30,6)" stroke="rgb(215,30,6)" stroke-width="1" opacity="0.5058823529411764" d="M 232.5 210 L 234 210.5 L 228.5 213 L 228.5 212 L 232.5 210 Z " /><path fill="rgb(215,30,6)" stroke="rgb(215,30,6)" stroke-width="1" opacity="0.5058823529411764" d="M 24.5 211 L 28 212.5 L 26.5 213 L 24.5 211 Z " /><path fill="rgb(215,30,6)" stroke="rgb(215,30,6)" stroke-width="1" opacity="0.5058823529411764" d="M 32.5 214 L 37 215.5 L 34.5 216 L 32.5 214 Z " /><path fill="rgb(215,30,6)" stroke="rgb(215,30,6)" stroke-width="1" opacity="0.5058823529411764" d="M 222.5 214 L 224 214.5 L 219.5 216 L 219.5 215 L 222.5 214 Z " /><path fill="rgb(215,30,6)" stroke="rgb(215,30,6)" stroke-width="1" opacity="0.5058823529411764" d="M 41.5 217 L 44 217.5 L 41.5 218 L 41.5 217 Z " /><path fill="rgb(215,30,6)" stroke="rgb(215,30,6)" stroke-width="1" opacity="0.5058823529411764" d="M 212.5 217 L 215 217.5 L 212.5 218 L 212.5 217 Z " /><path fill="rgb(215,30,6)" stroke="rgb(215,30,6)" stroke-width="1" opacity="0.5058823529411764" d="M 45.5 218 L 48 218.5 L 45.5 219 L 45.5 218 Z " /><path fill="rgb(215,30,6)" stroke="rgb(215,30,6)" stroke-width="1" opacity="0.5058823529411764" d="M 208.5 218 L 211 218.5 L 208.5 219 L 208.5 218 Z " /><path fill="rgb(215,30,6)" stroke="rgb(215,30,6)" stroke-width="1" opacity="0.5058823529411764" d="M 49.5 219 L 52 219.5 L 49.5 220 L 49.5 219 Z " /><path fill="rgb(215,30,6)" stroke="rgb(215,30,6)" stroke-width="1" opacity="0.5058823529411764" d="M 203.5 219 L 207 219.5 L 203.5 220 L 203.5 219 Z " /><path fill="rgb(215,30,6)" stroke="rgb(215,30,6)" stroke-width="1" opacity="0.5058823529411764" d="M 54.5 220 L 57 220.5 L 54.5 221 L 54.5 220 Z " /><path fill="rgb(215,30,6)" stroke="rgb(215,30,6)" stroke-width="1" opacity="0.5058823529411764" d="M 199.5 220 L 202 220.5 L 199.5 221 L 199.5 220 Z " /><path fill="rgb(215,30,6)" stroke="rgb(215,30,6)" stroke-width="1" opacity="0.5058823529411764" d="M 59.5 221 L 63 221.5 L 59.5 222 L 59.5 221 Z " /><path fill="rgb(215,30,6)" stroke="rgb(215,30,6)" stroke-width="1" opacity="0.5058823529411764" d="M 193.5 221 L 197 221.5 L 193.5 222 L 193.5 221 Z " /><path fill="rgb(215,30,6)" stroke="rgb(215,30,6)" stroke-width="1" opacity="0.5058823529411764" d="M 64.5 222 L 69 222.5 L 64.5 223 L 64.5 222 Z " /><path fill="rgb(215,30,6)" stroke="rgb(215,30,6)" stroke-width="1" opacity="0.5058823529411764" d="M 187.5 222 L 192 222.5 L 187.5 223 L 187.5 222 Z " /><path fill="rgb(215,30,6)" stroke="rgb(215,30,6)" stroke-width="1" opacity="0.5058823529411764" d="M 71.5 223 L 76 223.5 L 71.5 224 L 71.5 223 Z " /><path fill="rgb(215,30,6)" stroke="rgb(215,30,6)" stroke-width="1" opacity="0.5058823529411764" d="M 180.5 223 L 185 223.5 L 180.5 224 L 180.5 223 Z " /><path fill="rgb(215,30,6)" stroke="rgb(215,30,6)" stroke-width="1" opacity="0.5058823529411764" d="M 78.5 224 L 85 224.5 L 78.5 225 L 78.5 224 Z " /><path fill="rgb(215,30,6)" stroke="rgb(215,30,6)" stroke-width="1" opacity="0.5058823529411764" d="M 171.5 224 L 178 224.5 L 171.5 225 L 171.5 224 Z " /><path fill="rgb(215,30,6)" stroke="rgb(215,30,6)" stroke-width="1" opacity="0.5058823529411764" d="M 88.5 225 L 97 225.5 L 88.5 226 L 88.5 225 Z " /><path fill="rgb(215,30,6)" stroke="rgb(215,30,6)" stroke-width="1" opacity="0.5058823529411764" d="M 159.5 225 L 168 225.5 L 159.5 226 L 159.5 225 Z " /><path fill="rgb(216,30,6)" stroke="rgb(216,30,6)" stroke-width="1" opacity="1" d="M 45.5 40 Q 49.3 39.3 50 41.5 L 50 82.5 L 48.5 84 L 43 85 L 43 68 L 17.5 68 L 15 67 L 14 63.5 L 16.5 60 L 45.5 40 Z " /><path fill="rgb(216,30,6)" stroke="rgb(216,30,6)" stroke-width="1" opacity="1" d="M 207.5 40 L 212.5 41 L 241 61.5 L 242 64.5 L 241 67 L 238.5 68 L 213 68 L 213 84.5 L 211.5 85 L 206 82.5 L 206 41.5 L 207.5 40 Z " /><path fill="rgb(216,30,6)" stroke="rgb(216,30,6)" stroke-width="1" opacity="1" d="M 98.5 44 L 157.5 44 L 160 45 L 160 65.5 L 157.5 68 L 152 68 L 152 76.5 L 150.5 76 L 145 76 L 145 68.5 L 144.5 68 L 111 68 L 111 76 L 105.5 76 L 104 76.5 L 104 68 L 98.5 68 L 96 65.5 L 96 45 L 98.5 44 Z " /><path fill="rgb(216,30,6)" stroke="rgb(216,30,6)" stroke-width="1" opacity="1" d="M 100.5 85 L 155.5 85 L 156.5 86 L 167.5 86 L 168.5 87 L 177.5 87 L 178.5 88 L 196.5 90 L 210.5 93 L 231.5 100 Q 239.9 103.1 245 109.5 L 246 113.5 L 241.5 120 Q 231.1 127.6 216.5 131 L 207.5 128 L 188 124.5 L 205 107.5 L 206 104.5 L 203.5 101 L 201.5 100 L 198.5 101 L 176.5 123 L 167.5 123 L 166.5 122 L 156.5 122 L 155.5 121 L 132 121 L 132 94.5 L 129.5 92 Q 124.8 91.3 124 94.5 L 124 121 L 101.5 121 L 100.5 122 L 90.5 122 L 89.5 123 L 78.5 123 L 54.5 100 L 51 102.5 L 50 105.5 L 68 124.5 L 39.5 131 L 17.5 122 L 11 116.5 L 10 111.5 L 15.5 105 L 34.5 96 L 53.5 91 L 70.5 88 L 77.5 88 L 78.5 87 L 86.5 87 L 87.5 86 L 99.5 86 L 100.5 85 Z " /><path fill="rgb(216,30,6)" stroke="rgb(216,30,6)" stroke-width="1" opacity="1" d="M 10.5 127 L 13.5 130 L 25.5 136 L 54.5 144 L 81.5 147 L 82.5 148 L 93.5 148 L 94.5 149 L 140.5 150 L 141.5 149 L 160.5 149 L 161.5 148 L 181.5 147 L 210.5 142 L 232.5 135 L 242.5 130 L 245.5 127 L 246 159.5 L 241.5 165 Q 232.1 171.6 219.5 175 L 186.5 182 L 179.5 182 L 170.5 184 L 160.5 184 L 159.5 185 L 143.5 185 L 142.5 186 L 107.5 186 L 106.5 185 L 81.5 184 L 80.5 183 L 73.5 183 L 51.5 179 L 25.5 171 L 12 162.5 L 10 159.5 L 10.5 127 Z M 21 141 L 18 144 L 18 160 Q 19 163 24 162 L 26 160 L 26 144 Q 25 140 21 141 Z M 233 141 L 230 144 L 230 160 Q 231 163 236 162 L 238 160 L 238 144 Q 237 140 233 141 Z M 50 149 L 46 153 L 46 167 L 47 169 Q 48 171 53 170 L 55 167 L 55 153 Q 55 149 50 149 Z M 205 149 L 202 150 L 201 153 L 201 168 Q 202 171 208 170 L 210 167 L 210 153 Q 210 149 205 149 Z M 87 157 L 84 158 L 83 161 L 83 176 Q 84 179 90 178 L 92 175 L 92 162 L 91 160 L 87 157 Z M 169 157 L 167 158 L 164 162 L 164 175 L 165 177 Q 166 179 171 178 L 173 176 L 173 161 L 169 157 Z M 128 159 L 124 162 L 124 178 L 125 179 L 126 180 L 131 180 L 132 178 L 132 162 L 128 159 Z " /><path fill="rgb(216,30,6)" stroke="rgb(216,30,6)" stroke-width="1" opacity="1" d="M 10.5 172 L 15.5 176 L 26.5 181 L 56.5 189 L 75.5 191 L 76.5 192 L 84.5 192 L 85.5 193 L 96.5 193 L 97.5 194 L 133.5 195 L 134.5 194 L 171.5 193 L 172.5 192 L 180.5 192 L 209.5 187 L 234.5 179 L 245.5 172 L 246 199.5 L 239.5 207 L 227.5 213 L 198.5 221 L 180.5 223 L 179.5 224 L 153 226 L 153 209.5 L 149.5 206 L 106.5 206 L 104 208.5 L 103 210.5 L 103 226 L 69.5 223 L 40.5 217 L 19.5 209 L 11 201.5 L 10 199.5 L 10.5 172 Z " /></svg>